<svg width="1145" height="1142" viewBox="0 0 1145 1142" fill="none" xmlns="http://www.w3.org/2000/svg">
<path d="M546.487 271.502C541.659 309.271 540.69 343.335 506.712 360.52C474.384 376.872 448.034 360.004 415.363 344.348C344.928 310.595 308.227 246.976 318.236 169.515C322.801 134.188 337.805 54.469 337.805 54.469C337.805 54.469 414.99 81.6771 449.36 96.6702C520.95 127.899 556.392 194.028 546.487 271.502Z" fill="#52DD84"/>
<path d="M397.866 780.206C432.234 763.815 461.397 746.187 494.243 765.447C525.495 783.773 525.58 815.059 530.107 851.004C539.867 928.497 506.252 993.798 435.709 1027.33C403.536 1042.62 328.059 1067 328.059 1067C328.059 1067 309.473 993.541 303.468 956.527C290.961 879.43 327.368 813.827 397.866 780.206Z" fill="#52DD84"/>
<path d="M612.704 865.148C619.076 827.609 621.44 793.613 656.093 777.834C689.065 762.821 714.701 780.755 746.703 797.736C815.696 834.347 849.759 899.416 836.585 976.401C830.577 1011.51 810 1092.5 810 1092.5C810 1092.5 736.314 1060.2 702.586 1043.81C632.336 1009.68 599.634 942.151 612.704 865.148Z" fill="#52DD84"/>
<path d="M752.874 343.773C717.801 358.595 687.871 374.889 655.929 354.165C625.537 334.446 626.864 303.188 623.965 267.076C617.714 189.221 654.243 125.504 726.228 95.197C759.058 81.3748 830.624 60.5813 830.624 60.5813C830.624 60.5813 850.809 134.646 855.137 171.894C864.15 249.477 824.818 313.369 752.874 343.773Z" fill="#52DD84"/>
<path d="M878.811 522.498C841.155 516.857 807.12 515.153 790.67 480.814C775.019 448.14 792.452 422.161 808.808 389.834C844.071 320.143 908.466 284.822 985.693 296.498C1020.91 301.823 1095.5 330 1095.5 330C1095.5 330 1071.43 395.122 1055.7 429.162C1022.93 500.062 956.053 534.07 878.811 522.498Z" fill="#52DD84"/>
<path d="M793.142 726.698C776.191 692.603 758.088 663.732 776.809 630.576C794.621 599.028 825.901 598.431 861.767 593.316C939.09 582.29 1004.93 614.832 1039.61 684.817C1055.42 716.735 1079.5 791.5 1079.5 791.5C1079.5 791.5 1007.9 811.588 970.984 818.198C894.102 831.965 827.912 796.636 793.142 726.698Z" fill="#52DD84"/>
<path d="M337.982 376.584C358.946 408.369 380.421 434.829 365.864 470.012C352.013 503.489 321.037 507.879 286.057 517.31C210.645 537.642 141.338 513.334 98.4222 448.077C78.8494 418.314 37 348.5 37 348.5C37 348.5 114.511 318.392 150.347 307.351C224.989 284.352 294.978 311.384 337.982 376.584Z" fill="#52DD84"/>
<path d="M278.231 577.813C315.79 584.073 349.792 586.335 365.674 620.941C380.786 653.867 362.929 679.557 346.043 711.61C309.639 780.712 244.673 814.969 167.648 802.026C132.519 796.122 60.5 770.5 60.5 770.5C60.5 770.5 83.5481 702.005 99.8359 668.229C133.762 597.877 201.189 564.973 278.231 577.813Z" fill="#52DD84"/>
</svg>
